<?xml version="1.0" encoding="UTF-8"?>
<svg id="Layer_2" xmlns="http://www.w3.org/2000/svg" version="1.1" viewBox="0 0 800 800">
  <!-- Generator: Adobe Illustrator 29.7.1, SVG Export Plug-In . SVG Version: 2.1.1 Build 8)  -->
  <defs>
    <style>
      .st0 {
        fill: none;
        stroke: #f7f7f7;
        stroke-linecap: round;
        stroke-linejoin: round;
        stroke-width: 16.7px;
      }

      .st1 {
        fill: #020000;
      }
    </style>
  </defs>
  <circle class="st1" cx="400.4" cy="399.5" r="362.3"/>
  <g id="Layer_1">
    <circle class="st0" cx="400" cy="400" r="358.3"/>
    <path class="st0" d="M209,97c150.1,100.8,329.1,149.6,509.7,139.2"/>
    <path class="st0" d="M366.7,43.2c71.5,56.8,158.2,73.5,250,71.8"/>
    <path class="st0" d="M100,203.2c194.7,147.7,413.2,207.7,657.5,183.3"/>
    <path class="st0" d="M46.3,342.5c153.7,121.3,463.7,267.5,690.7,180"/>
    <path class="st0" d="M52.8,489.2c177.5,145.5,398.8,212.5,600,164.5"/>
    <path class="st0" d="M121.8,625.8c125.7,87.7,264.3,134.2,415.7,105.2"/>
    <path class="st0" d="M330.5,48.5C189,112.5,80,217.8,41.7,394.8"/>
    <path class="st0" d="M450,45.2C156.5,145,39.8,514.7,164.2,669.2"/>
    <path class="st0" d="M493.7,54.2c-13.3,248.5-77,470-170,695.8"/>
    <path class="st0" d="M520.2,62.3c155.3,243.5,33.3,579.5-105.8,695.7"/>
    <path class="st0" d="M542.8,71.5c159.3,166.7,243,425.2-5.3,659.5"/>
    <path class="st0" d="M480.2,50.8c-212,165.8-319.3,561.5-225.8,676.5"/>
  </g>
</svg>